<svg width="32" height="30" viewBox="0 0 32 30" fill="none" xmlns="http://www.w3.org/2000/svg">
<path id="Vector" d="M16.0005 3.84318e-09C12.2012 -8.16009e-05 8.5258 1.29941 5.63207 3.66593C2.73834 6.03246 0.815129 9.31156 0.206599 12.9164C-0.401931 16.5213 0.343933 20.2167 2.31072 23.3414C4.2775 26.466 7.33685 28.8159 10.9413 29.9706C11.7413 30.1059 12.0405 29.6445 12.0405 29.24C12.0405 28.8755 12.0213 27.6636 12.0213 26.3763C8.00046 27.0869 6.96045 25.4336 6.64045 24.5692C6.28547 23.7276 5.72258 22.9817 5.00044 22.396C4.44043 22.1084 3.64042 21.3964 4.97964 21.3779C5.49145 21.4311 5.98236 21.6022 6.41074 21.8766C6.83913 22.1511 7.19235 22.5208 7.44046 22.9543C7.65923 23.3322 7.95342 23.6648 8.30617 23.9332C8.65892 24.2015 9.0633 24.4004 9.49613 24.5182C9.92896 24.6361 10.3817 24.6707 10.8285 24.6201C11.2753 24.5694 11.7073 24.4346 12.0997 24.2232C12.169 23.4409 12.5318 22.7095 13.1205 22.1653C9.56047 21.7809 5.84044 20.4551 5.84044 14.5723C5.81778 13.0436 6.40457 11.5644 7.48046 10.4383C6.99135 9.10978 7.04858 7.65189 7.64046 6.36262C7.64046 6.36262 8.97967 5.95967 12.0405 7.93905C14.6586 7.24688 17.4225 7.24688 20.0406 7.93905C23.0998 5.93967 24.4406 6.36262 24.4406 6.36262C25.0326 7.65185 25.0899 9.1098 24.6006 10.4383C25.6797 11.5624 26.2671 13.0429 26.2406 14.5723C26.2406 20.4736 22.4998 21.7809 18.9398 22.1653C19.3216 22.5374 19.6157 22.984 19.8021 23.4749C19.9884 23.9659 20.0627 24.4896 20.0198 25.0106C20.0198 27.0684 20.0006 28.7218 20.0006 29.24C20.0006 29.6445 20.2998 30.1244 21.0998 29.9706C24.6976 28.8062 27.7478 26.4507 29.706 23.3246C31.6641 20.1985 32.4028 16.5051 31.7901 12.9039C31.1774 9.30271 29.2532 6.028 26.3609 3.66436C23.4687 1.30071 19.7968 0.00198409 16.0005 3.84318e-09Z" fill="#734B32"/>
</svg>
