<svg width="41" height="30" viewBox="0 0 41 30" fill="none" xmlns="http://www.w3.org/2000/svg">
<path id="Vector" fill-rule="evenodd" clip-rule="evenodd" d="M14.7026 17.668L20.5041 21.538L26.0965 17.774L38.6322 29.84C38.3022 29.944 37.9496 30 37.5826 30H3.41735C2.96635 30 2.53585 29.914 2.1402 29.76L14.7026 17.668ZM41 7.752V26.666C41 27.16 40.8893 27.628 40.6925 28.05L28.4048 16.222L41 7.752ZM1.93438e-06 7.858L12.3861 16.122L0.217302 27.838C0.0731783 27.4633 -0.000435078 27.0662 1.93438e-06 26.666V7.858ZM37.5826 0C39.4686 0 41 1.492 41 3.334V4.506L20.4959 18.296L1.93438e-06 4.62V3.334C1.93438e-06 1.494 1.5293 0 3.41735 0H37.5826Z" fill="#734B32"/>
</svg>
